<svg xmlns="http://www.w3.org/2000/svg" width="64" height="64" viewBox="0 0 64 64" fill="none"><rect width="64" height="64" rx="8" fill="#E2F8ED"></rect><path d="M32 50.8998C42.1068 50.8998 50.3 42.7066 50.3 32.5998C50.3 22.493 42.1068 14.2998 32 14.2998C21.8932 14.2998 13.7 22.493 13.7 32.5998C13.7 42.7066 21.8932 50.8998 32 50.8998Z" fill="#F7BC5D"></path><path d="M45.4 51.1999V49.3999C45.4 41.9999 39.3 35.8999 31.9 35.8999C24.5 35.8999 18.4 41.9999 18.4 49.3999V51.1999H45.4Z" fill="#5BB286"></path><path d="M24.9 46.3999V51.1999" stroke="#414042" stroke-miterlimit="10"></path><path d="M39.7 46.3999V51.1999" stroke="#414042" stroke-miterlimit="10"></path><path d="M22.9 31.1001H22.4C21.8 31.1001 21.3 30.6001 21.3 30.0001V28.2001C21.3 27.6001 21.8 27.1001 22.4 27.1001H22.9V31.1001Z" fill="white"></path><path d="M40.2 31.1001H40.7C41.3 31.1001 41.8 30.6001 41.8 30.0001V28.2001C41.8 27.6001 41.3 27.1001 40.7 27.1001H40.2V31.1001Z" fill="white"></path><path d="M22.9 31.1001H22.4C21.8 31.1001 21.3 30.6001 21.3 30.0001V28.2001C21.3 27.6001 21.8 27.1001 22.4 27.1001H22.9V31.1001V31.1001Z" stroke="#414042" stroke-miterlimit="10" stroke-linecap="round"></path><path d="M40.2 31.1001H40.7C41.3 31.1001 41.8 30.6001 41.8 30.0001V28.2001C41.8 27.6001 41.3 27.1001 40.7 27.1001H40.2V31.1001V31.1001Z" stroke="#414042" stroke-miterlimit="10" stroke-linecap="round"></path><path d="M22.4 23.5V31.2C22.4 36.2 26.5 40.3 31.5 40.3C36.5 40.3 40.6 36.2 40.6 31.2V23.9C39.5 17.5 33.8 15.6 30.9 15.7C28.4 15.8 23.3 18.5 22.4 23.5Z" fill="white"></path><path d="M22.7 25.1997V31.1997C22.7 35.9997 26.6 39.9997 31.5 39.9997C36.3 39.9997 40.3 36.0997 40.3 31.1997V25.1997" stroke="#414042" stroke-miterlimit="10"></path><path d="M40.3 23.1999H22.6L20.5 15.2999C25.1 12.0999 37.7 11.7999 42.3 15.2999L40.3 23.1999Z" fill="#5BB286"></path><path d="M40.3 23.1999H22.6L20.5 15.2999C25.1 12.0999 37.7 11.7999 42.3 15.2999L40.3 23.1999Z" stroke="#414042" stroke-miterlimit="10"></path><path d="M33.4 17.2001H32.3V16.1001H30.6V17.2001H29.5V18.8001H30.6V19.9001H32.3V18.8001H33.4V17.2001Z" fill="white"></path><path d="M35.1 45.3999H36V47.3999H35.1V45.3999Z" fill="#414042"></path><path d="M32.8 47.1001H38.3V50.1001H32.8V47.1001Z" fill="white"></path></svg>
