<svg xmlns="http://www.w3.org/2000/svg" width="64" height="64" viewBox="0 0 64 64" fill="none"><rect width="64" height="64" rx="8" fill="#E2F8ED"></rect><path d="M36.1 19.5001C36.1 19.5001 39.6 20.2001 39.7 23.0001C39.7 23.0001 42.9 23.6001 41.9 27.4001C41.9 27.4001 44.3 29.2001 43.5 33.4001C43.5 33.4001 46.8 35.6001 43.1 39.0001V39.4001C43.1 39.4001 43.6 42.1001 40.4 44.4001C40.4 44.4001 39.1 45.5001 36.9 48.1001C35.9 49.4001 32.5 50.8001 30.8 45.8001V20.4001C31.1 20.4001 33.2 16.3001 36.1 19.5001Z" fill="#D1D3D4"></path><path d="M25.4 19.5001C25.4 19.5001 21.9 20.2001 21.8 23.0001C21.8 23.0001 18.6 23.6001 19.6 27.4001C19.6 27.4001 17.2 29.2001 18 33.4001C18 33.4001 14.7 35.6001 18.4 39.0001V39.4001C18.4 39.4001 17.9 42.1001 21.1 44.4001C21.1 44.4001 22.4 45.5001 24.6 48.1001C25.6 49.4001 29 50.8001 30.7 45.8001V20.4001C30.4 20.4001 28.3 16.3001 25.4 19.5001Z" fill="#5BB286"></path><path d="M40.1 29.5C39.3 30 38.4 30.2 37.5 30C36.6 29.8 35.9 29.3 35.3 28.6C34.8 27.8 34.6 26.9 34.8 26" stroke="#414042" stroke-miterlimit="10"></path><path d="M37.5 38.2002C36.7 38.7002 35.8 38.9002 34.9 38.7002C34 38.5002 33.3 38.0002 32.7 37.3002C32.2 36.5002 32 35.6002 32.2 34.7002" stroke="#414042" stroke-miterlimit="10"></path><path d="M43.3 38.9001C42.5 38.9001 41.9 38.5001 41.4 38.0001C40.9 37.5001 40.7 36.8001 40.7 36.0001C40.7 35.2001 41.1 34.6001 41.6 34.1001" stroke="#414042" stroke-miterlimit="10"></path><path d="M35 33.5002C34.4 32.8002 34.1 32.0002 34.2 31.0002C34.3 30.1002 34.7 29.2002 35.4 28.7002" stroke="#414042" stroke-miterlimit="10"></path><path d="M41.1 37.7002C40.8 36.9002 40.2 36.2002 39.4 35.8002C38.6 35.4002 37.6 35.4002 36.8 35.7002" stroke="#414042" stroke-miterlimit="10"></path><path d="M37.3 24.7999C36.7 24.1999 36.2 23.3999 36.2 22.3999C36.2 21.4999 36.5 20.5999 37.1 19.8999" stroke="#414042" stroke-miterlimit="10"></path><path d="M32.8 24.9C33.7 24.9 34.5 24.6 35.2 23.9C35.9 23.2 36.2 22.4 36.2 21.5" stroke="#414042" stroke-miterlimit="10"></path><path d="M33.3 46.7998C34 46.0998 34.8 45.7998 35.7 45.7998C36.6 45.7998 37.4 46.0998 38.1 46.7998" stroke="#414042" stroke-miterlimit="10"></path><path d="M34.9 41.5C34.6 42.4 34.6 43.3 34.9 44.1C35.2 44.9 35.9 45.6 36.8 45.9" stroke="#414042" stroke-miterlimit="10"></path><path d="M21.4 29.5C22.2 30 23.1 30.2 24 30C24.9 29.8 25.6 29.3 26.2 28.6C26.7 27.8 26.9 26.9 26.7 26" stroke="#414042" stroke-miterlimit="10"></path><path d="M24 38.2002C24.8 38.7002 25.7 38.9002 26.6 38.7002C27.5 38.5002 28.2 38.0002 28.8 37.3002C29.3 36.5002 29.5 35.6002 29.3 34.7002" stroke="#414042" stroke-miterlimit="10"></path><path d="M18.2 38.9001C19 38.9001 19.6 38.5001 20.1 38.0001C20.6 37.5001 20.8 36.8001 20.8 36.0001C20.8 35.2001 20.4 34.6001 19.9 34.1001" stroke="#414042" stroke-miterlimit="10"></path><path d="M26.5 33.5002C27.1 32.8002 27.4 32.0002 27.3 31.0002C27.2 30.1002 26.8 29.2002 26.1 28.7002" stroke="#414042" stroke-miterlimit="10"></path><path d="M20.4 37.7002C20.7 36.9002 21.3 36.2002 22.1 35.8002C22.9 35.4002 23.9 35.4002 24.7 35.7002" stroke="#414042" stroke-miterlimit="10"></path><path d="M24.2 24.7999C24.8 24.1999 25.3 23.3999 25.3 22.3999C25.3 21.4999 25 20.5999 24.4 19.8999" stroke="#414042" stroke-miterlimit="10"></path><path d="M28.7 25.0001C27.8 25.0001 27 24.7001 26.3 24.0001C25.6 23.3001 25.3 22.5001 25.3 21.6001" stroke="#414042" stroke-miterlimit="10"></path><path d="M28.2 46.7998C27.5 46.0998 26.7 45.7998 25.8 45.7998C24.9 45.7998 24.1 46.0998 23.4 46.7998" stroke="#414042" stroke-miterlimit="10"></path><path d="M26.6 41.5C26.9 42.4 26.9 43.3 26.6 44.1C26.3 44.9 25.6 45.6 24.7 45.9" stroke="#414042" stroke-miterlimit="10"></path><path d="M12 18.2998H13.2" stroke="#414042" stroke-miterlimit="10"></path><path d="M15.2 18.2998H16.5" stroke="#414042" stroke-miterlimit="10"></path><path d="M14.2 20.4998V19.2998" stroke="#414042" stroke-miterlimit="10"></path><path d="M14.2 17.3V16" stroke="#414042" stroke-miterlimit="10"></path><path d="M46.9 45H48.4" stroke="#414042" stroke-miterlimit="10"></path><path d="M50.8 45H52.3" stroke="#414042" stroke-miterlimit="10"></path><path d="M49.6 47.6997V46.1997" stroke="#414042" stroke-miterlimit="10"></path><path d="M49.6 43.7999V42.3999" stroke="#414042" stroke-miterlimit="10"></path><path d="M27.7 12.7002H29.2" stroke="#414042" stroke-miterlimit="10"></path><path d="M31.6 12.7002H33.1" stroke="#414042" stroke-miterlimit="10"></path><path d="M30.4 15.3999V13.8999" stroke="#414042" stroke-miterlimit="10"></path><path d="M30.4 11.5V10" stroke="#414042" stroke-miterlimit="10"></path><path d="M14.8 51.6997H16.1" stroke="#414042" stroke-miterlimit="10"></path><path d="M18.1 51.6997H19.4" stroke="#414042" stroke-miterlimit="10"></path><path d="M17.1 53.9997V52.6997" stroke="#414042" stroke-miterlimit="10"></path><path d="M17.1 50.5998V49.2998" stroke="#414042" stroke-miterlimit="10"></path><path d="M21.8 17.6001H22.7" stroke="#414042" stroke-miterlimit="10"></path><path d="M24 17.6001H24.9" stroke="#414042" stroke-miterlimit="10"></path><path d="M23.4 19.1002V18.2002" stroke="#414042" stroke-miterlimit="10"></path><path d="M23.4 16.9V16" stroke="#414042" stroke-miterlimit="10"></path><path d="M38.1 52.3999H39" stroke="#414042" stroke-miterlimit="10"></path><path d="M40.3 52.3999H41.2" stroke="#414042" stroke-miterlimit="10"></path><path d="M39.7 53.9001V53.1001" stroke="#414042" stroke-miterlimit="10"></path><path d="M39.7 51.6999V50.8999" stroke="#414042" stroke-miterlimit="10"></path><path d="M11.7 39.6001H12.6" stroke="#414042" stroke-miterlimit="10"></path><path d="M13.9 39.6001H14.8" stroke="#414042" stroke-miterlimit="10"></path><path d="M13.2 41.1003V40.3003" stroke="#414042" stroke-miterlimit="10"></path><path d="M13.2 38.9001V38.1001" stroke="#414042" stroke-miterlimit="10"></path><path d="M43.3 25H44.1" stroke="#414042" stroke-miterlimit="10"></path><path d="M45.5 25H46.3" stroke="#414042" stroke-miterlimit="10"></path><path d="M44.8 26.5001V25.6001" stroke="#414042" stroke-miterlimit="10"></path><path d="M44.8 24.3V23.5" stroke="#414042" stroke-miterlimit="10"></path><path d="M13.9 27.7002C14.4523 27.7002 14.9 27.2525 14.9 26.7002C14.9 26.1479 14.4523 25.7002 13.9 25.7002C13.3477 25.7002 12.9 26.1479 12.9 26.7002C12.9 27.2525 13.3477 27.7002 13.9 27.7002Z" stroke="#414042" stroke-miterlimit="10"></path><path d="M42.6 17.8C43.0971 17.8 43.5 17.3971 43.5 16.9C43.5 16.4029 43.0971 16 42.6 16C42.103 16 41.7 16.4029 41.7 16.9C41.7 17.3971 42.103 17.8 42.6 17.8Z" stroke="#414042" stroke-miterlimit="10"></path><path d="M48.7 35.0002C49.197 35.0002 49.6 34.5972 49.6 34.1002C49.6 33.6031 49.197 33.2002 48.7 33.2002C48.2029 33.2002 47.8 33.6031 47.8 34.1002C47.8 34.5972 48.2029 35.0002 48.7 35.0002Z" stroke="#414042" stroke-miterlimit="10"></path><path d="M29.3 53.2001C29.7418 53.2001 30.1 52.8419 30.1 52.4001C30.1 51.9583 29.7418 51.6001 29.3 51.6001C28.8582 51.6001 28.5 51.9583 28.5 52.4001C28.5 52.8419 28.8582 53.2001 29.3 53.2001Z" stroke="#414042" stroke-miterlimit="10"></path></svg>
