<svg xmlns="http://www.w3.org/2000/svg" width="64" height="64" viewBox="0 0 64 64" fill="none"><rect width="64" height="64" rx="8" fill="#E2F8ED"></rect><path d="M16.7 24.3003H30.7V26.2003H16.7V24.3003Z" fill="#E6E7E8"></path><path d="M33.7 24.3003H47.3V26.2003H33.7V24.3003Z" fill="#E6E7E8"></path><path d="M16.7 24.3003H47.4" stroke="#414042" stroke-miterlimit="10"></path><path d="M24.9 20.5H39.2V26.5H24.9V20.5Z" fill="#5BB286"></path><path d="M15.4 26.6001H48.8V49.4001H15.4V26.6001Z" fill="#F1F2F2"></path><path d="M28.5 37H35.4V48.5H28.5V37Z" fill="#5BB286"></path><path d="M36.1 37H47.1V45.2H36.1V37Z" fill="#5BB286"></path><path d="M17.4 37H27.6V45.2H17.4V37Z" fill="#5BB286"></path><path d="M33.9 43.7002C34.1761 43.7002 34.4 43.4763 34.4 43.2002C34.4 42.9241 34.1761 42.7002 33.9 42.7002C33.6238 42.7002 33.4 42.9241 33.4 43.2002C33.4 43.4763 33.6238 43.7002 33.9 43.7002Z" fill="#414042"></path><path d="M13.6 49.3003H50.6" stroke="#414042" stroke-miterlimit="10"></path><path d="M10.1 51.1001H53.9" stroke="#414042" stroke-miterlimit="10"></path><path d="M15.9 49.3001V34.6001" stroke="#414042" stroke-miterlimit="10"></path><path d="M48.5 49.3001V34.6001" stroke="#414042" stroke-miterlimit="10"></path><path d="M15.5 26.6001H48.9" stroke="#414042" stroke-miterlimit="10"></path><path d="M24.8 32.7002H39.6V34.6002H24.8V32.7002Z" stroke="#414042" stroke-miterlimit="10"></path><path d="M14.6 29.9L15.5 27H48.9L50.2 29.9H14.6Z" fill="#F9CD86"></path><path d="M24.9 20.5H39.2" stroke="#414042" stroke-miterlimit="10"></path><path d="M35.9 45.2002H47.3" stroke="#414042" stroke-miterlimit="10"></path><path d="M27.8 22.8003H36.6V23.7003H27.8V22.8003Z" fill="#F1F2F2"></path><path d="M29.2 24.3003H34.6V24.7003H29.2V24.3003Z" fill="#F1F2F2"></path><path d="M16.3 32.3999C15.4 32.3999 14.7 31.6999 14.7 30.7999V29.8999H17.9V30.7999C17.9 31.6999 17.2 32.3999 16.3 32.3999Z" fill="#F5AB35"></path><path d="M19.5 32.3999C18.6 32.3999 17.9 31.6999 17.9 30.7999V29.8999H21.1V30.7999C21.1 31.6999 20.4 32.3999 19.5 32.3999Z" fill="#F5AB35"></path><path d="M22.7999 32.3999C21.8999 32.3999 21.2 31.6999 21.2 30.7999V29.8999H24.4V30.7999C24.4 31.6999 23.5999 32.3999 22.7999 32.3999Z" fill="#F5AB35"></path><path d="M26 32.3999C25.1 32.3999 24.4 31.6999 24.4 30.7999V29.8999H27.6V30.7999C27.6 31.6999 26.9 32.3999 26 32.3999Z" fill="#F5AB35"></path><path d="M29.1999 32.3999C28.2999 32.3999 27.5999 31.6999 27.5999 30.7999V29.8999H30.7999V30.7999C30.8999 31.6999 30.0999 32.3999 29.1999 32.3999Z" fill="#F5AB35"></path><path d="M32.5 32.3999C31.6 32.3999 30.9 31.6999 30.9 30.7999V29.8999H34.1V30.7999C34.1 31.6999 33.4 32.3999 32.5 32.3999Z" fill="#F5AB35"></path><path d="M35.6999 32.3999C34.7999 32.3999 34.0999 31.6999 34.0999 30.7999V29.8999H37.2999V30.7999C37.3999 31.6999 36.5999 32.3999 35.6999 32.3999Z" fill="#F5AB35"></path><path d="M39 32.3999C38.1 32.3999 37.4 31.6999 37.4 30.7999V29.8999H40.6V30.7999C40.6 31.6999 39.9 32.3999 39 32.3999Z" fill="#F5AB35"></path><path d="M42.1999 32.3999C41.2999 32.3999 40.5999 31.6999 40.5999 30.7999V29.8999H43.7999V30.7999C43.8999 31.6999 43.0999 32.3999 42.1999 32.3999Z" fill="#F5AB35"></path><path d="M45.5 32.3999C44.6 32.3999 43.9 31.6999 43.9 30.7999V29.8999H47.1V30.7999C47.1 31.6999 46.4 32.3999 45.5 32.3999Z" fill="#F5AB35"></path><path d="M48.5 32.3999C47.6 32.3999 46.9 31.6999 46.9 30.7999V29.8999H50.1V30.7999C50.2 31.6999 49.4 32.3999 48.5 32.3999Z" fill="#F5AB35"></path><path d="M51.7 17.7001C51.7 17.3001 51.3 16.9001 50.9 16.9001C50.8 16.9001 50.7 16.9001 50.6 17.0001C50.5 16.7001 50.2 16.5001 49.8 16.4001V16.2001C49.8 15.5001 49.2 14.9001 48.5 14.9001C48.2 14.9001 47.9 15.0001 47.6 15.3001C47.5 14.1001 46.5 13.1001 45.2 13.1001C44.1 13.1001 43.2 13.8001 42.9 14.9001H42.6C41.8 14.9001 41.2 15.4001 41 16.1001C40.8 16.0001 40.6 16.0001 40.4 16.0001C39.6 16.0001 38.9 16.7001 38.9 17.5001C38.9 17.8001 39 18.0001 39.1 18.3001H51.5C51.6 17.9001 51.7 17.8001 51.7 17.7001Z" fill="#E6E7E8"></path><path d="M24.9 18.8C24.9 18.5 24.7 18.2 24.3 18.2C24.2 18.2 24.1 18.2 24.1 18.3C24 18.1 23.8 17.9 23.6 17.9V17.7C23.6 17.2 23.2 16.8 22.7 16.8C22.5 16.8 22.2 16.9 22.1 17.1C22 16.2 21.3 15.5 20.4 15.5C19.6 15.5 19 16 18.8 16.7H18.6C18.1 16.7 17.6 17.1 17.5 17.6C17.4 17.6 17.2 17.5 17.1 17.5C16.5 17.5 16 18 16 18.6C16 18.8 16.1 19 16.2 19.1H25C24.9 19 24.9 18.9 24.9 18.8Z" fill="#E6E7E8"></path><path d="M16.7 45.2002H28.1" stroke="#414042" stroke-miterlimit="10"></path></svg>
