<svg xmlns="http://www.w3.org/2000/svg" width="64" height="64" viewBox="0 0 64 64" fill="none"><rect width="64" height="64" rx="8" fill="#E2F8ED"></rect><path d="M51.7 34.6001C51.7 37.4001 41.6 37.4001 41.6 34.6001V24.1001C41.6 21.3001 43.9 19.1001 46.6 19.1001C49.4 19.1001 51.6 21.4001 51.6 24.1001V34.6001H51.7Z" fill="#BCBEC0"></path><path d="M43.4 18.2002H49.9C50.3 18.2002 50.5 18.5002 50.5 18.9002L49.9 21.6002C49.8 22.0002 49.4 22.3002 49.1 22.3002H44.3C43.9 22.3002 43.5 22.0002 43.5 21.6002L42.9 18.9002C42.7 18.5002 43 18.2002 43.4 18.2002Z" fill="#E6E7E8"></path><path d="M45.6 19.8003H47.5V20.7003H45.6V19.8003Z" fill="#5BB286"></path><path d="M46.1 19.3003H47V21.2003H46.1V19.3003Z" fill="#5BB286"></path><path d="M53.2 37.6001V36.7001C53.2 33.1001 50.2 30.1001 46.6 30.1001C43 30.1001 40 33.1001 40 36.7001V37.6001H53.2Z" fill="#E6E7E8"></path><path d="M50.1 25.6004C46.8 25.6004 45.6 23.9004 45.6 23.9004C45.6 23.9004 44.5 25.3004 43.1 25.6004V28.9004C43.4 30.9004 44.8 32.5004 46.6 32.5004C48.4 32.5004 49.9 30.9004 50.1 28.9004V25.6004Z" fill="#F1F2F2"></path><path d="M22.5 34.6001C22.5 37.4001 12.4 37.4001 12.4 34.6001V24.1001C12.4 21.3001 14.7 19.1001 17.4 19.1001C20.2 19.1001 22.4 21.4001 22.4 24.1001V34.6001H22.5Z" fill="#BCBEC0"></path><path d="M14.1 18.2002H20.6C21 18.2002 21.2 18.5002 21.2 18.9002L20.6 21.6002C20.5 22.0002 20.1 22.3002 19.8 22.3002H15C14.6 22.3002 14.2 22.0002 14.2 21.6002L13.6 18.9002C13.5 18.5002 13.8 18.2002 14.1 18.2002Z" fill="#E6E7E8"></path><path d="M16.4 19.8003H18.3V20.7003H16.4V19.8003Z" fill="#5BB286"></path><path d="M16.9 19.3003H17.8V21.2003H16.9V19.3003Z" fill="#5BB286"></path><path d="M24 37.6001V36.7001C24 33.1001 21 30.1001 17.4 30.1001C13.8 30.1001 10.8 33.1001 10.8 36.7001V37.6001H24Z" fill="#E6E7E8"></path><path d="M20.9 25.6004C17.6 25.6004 16.4 23.9004 16.4 23.9004C16.4 23.9004 15.3 25.3004 13.9 25.6004V28.9004C14.2 30.9004 15.6 32.5004 17.4 32.5004C19.2 32.5004 20.7 30.9004 20.9 28.9004V25.6004Z" fill="#F1F2F2"></path><path d="M44.3 47.8V46.1C44.3 39.2 38.6 33.5 31.7 33.5C24.8 33.5 19.1 39.2 19.1 46.1V47.8H44.3Z" fill="white"></path><path d="M24.7 36.1001C21.7 38.3001 19.7 41.8001 19.7 45.9001V47.5001H43.7V45.9001C43.7 42.2001 42 38.8001 39.3 36.6001" stroke="#414042" stroke-miterlimit="10"></path><path d="M25.1 43.3003V47.8003" stroke="#414042" stroke-miterlimit="10"></path><path d="M39 43.3003V47.8003" stroke="#414042" stroke-miterlimit="10"></path><path d="M40.4 26.9001V23.0001C40.4 18.4001 36.6 14.6001 32 14.6001C27.4 14.6001 23.6 18.4001 23.6 23.0001V26.9001H40.4Z" fill="#F5AB35"></path><path d="M40.4 26.9001V23.0001C40.4 18.4001 36.6 14.6001 32 14.6001C27.4 14.6001 23.6 18.4001 23.6 23.0001V26.9001H40.4V26.9001Z" stroke="#414042" stroke-miterlimit="10" stroke-linecap="round"></path><path d="M24.3 29.3003H23.9C23.4 29.3003 22.9 28.9003 22.9 28.3003V26.8003C22.9 26.3003 23.3 25.8003 23.9 25.8003H24.3V29.3003Z" fill="white"></path><path d="M39.7 29.3003H40.1C40.6 29.3003 41.1 28.9003 41.1 28.3003V26.8003C41.1 26.3003 40.7 25.8003 40.1 25.8003H39.7V29.3003Z" fill="white"></path><path d="M24.3 29.3003H23.9C23.4 29.3003 22.9 28.9003 22.9 28.3003V26.8003C22.9 26.3003 23.3 25.8003 23.9 25.8003H24.3V29.3003Z" stroke="#414042" stroke-miterlimit="10" stroke-linecap="round"></path><path d="M39.7 29.3003H40.1C40.6 29.3003 41.1 28.9003 41.1 28.3003V26.8003C41.1 26.3003 40.7 25.8003 40.1 25.8003H39.7V29.3003Z" stroke="#414042" stroke-miterlimit="10" stroke-linecap="round"></path><path d="M24.3 24.5002V29.4002C24.3 33.6002 27.7 37.0002 31.9 37.0002C36.1 37.0002 39.5 33.6002 39.5 29.4002L39.6 25.3002C33.9 24.3002 29.7 21.2002 28.6 20.2002C28.6 20.2002 26.4 23.9002 24.3 24.5002Z" fill="#F1F2F2"></path><path d="M24.3 24.5002V29.4002C24.3 33.6002 27.7 37.0002 31.9 37.0002C36.1 37.0002 39.5 33.6002 39.5 29.4002L39.6 25.3002C31.8 23.8002 28.6 20.2002 28.6 20.2002C27.8 22.8002 25.2 23.8002 24.3 24.5002V24.5002Z" stroke="#414042" stroke-miterlimit="10" stroke-linecap="round"></path><path d="M35.2 33.0002V32.1002C35.2 31.6002 34.7 31.4002 34.2 31.1002L32 30.2002L29.9 31.1002C29.4 31.3002 28.9 31.5002 28.9 32.1002V33.0002L31 32.7002L32.1 31.9002L33.2 32.8002L35.2 33.0002Z" fill="#F5AB35"></path><path d="M35.2 33.0002V32.1002C35.2 31.6002 34.7 31.4002 34.2 31.1002L32 30.2002L29.9 31.1002C29.4 31.3002 28.9 31.5002 28.9 32.1002V33.0002L31 32.7002L32.1 31.9002L33.2 32.8002L35.2 33.0002V33.0002Z" stroke="#414042" stroke-miterlimit="10" stroke-linecap="round"></path><path d="M33.6 44.3003H37.7" stroke="#414042" stroke-miterlimit="10"></path><path d="M10.8 49.3999H52.7" stroke="#414042" stroke-miterlimit="10"></path></svg>
