<svg xmlns="http://www.w3.org/2000/svg" width="64" height="64" viewBox="0 0 64 64" fill="none"><rect width="64" height="64" rx="8" fill="#E2F8ED"></rect><path d="M21 32.5999V41.6999C21 47.5999 25.8 52.3999 31.7 52.3999C37.6 52.3999 42.4 47.5999 42.4 41.6999V33.1999C41.1 25.6999 34.4 23.4999 31 23.5999C28 23.6999 22.1 26.7999 21 32.5999Z" fill="white"></path><path d="M42.4 35.9C42.4 35.9 36.9 29.4 28 28.5L21 36.2C21 36.2 19.2 25.2 31.3 23.6C31.3 23.6 42.6 23.2 42.4 35.9Z" fill="#F5AB35"></path><path d="M21 36.2C21 36.2 25.4 33.6 28 28.5C28 28.5 38.8 30.4 42.4 35.9" stroke="#414042" stroke-miterlimit="10"></path><path d="M42.4 34.3001C42.4 28.4001 37.6 23.6001 31.7 23.6001C25.8 23.6001 21 28.4001 21 34.3001V41.7001C21 47.6001 25.8 52.4001 31.7 52.4001C37.6 52.4001 42.4 47.6001 42.4 41.7001V34.3001V34.3001Z" stroke="#414042" stroke-miterlimit="10"></path><path d="M29 18.7002H32" stroke="#414042" stroke-miterlimit="10"></path><path d="M30.5 20.2002V17.2002" stroke="#414042" stroke-miterlimit="10"></path><path d="M18.6 13.7002H22.8" stroke="#414042" stroke-miterlimit="10"></path><path d="M20.7 15.8001V11.6001" stroke="#414042" stroke-miterlimit="10"></path><path d="M10.8 34.2002H15.5" stroke="#414042" stroke-miterlimit="10"></path><path d="M13.2 36.5003V31.8003" stroke="#414042" stroke-miterlimit="10"></path><path d="M46.3 20.2002H51" stroke="#414042" stroke-miterlimit="10"></path><path d="M48.6 22.5003V17.8003" stroke="#414042" stroke-miterlimit="10"></path><path d="M22.6 45.6001C21.1 45.6001 19.9 44.4001 19.9 42.9001V37.3001C19.9 35.8001 21.1 34.6001 22.6 34.6001V45.6001Z" fill="#5BB286"></path><path d="M21.2 35.0001V45.2001C21.6 45.5001 22.1 45.6001 22.6 45.6001V34.6001C22.1 34.6001 21.6 34.7001 21.2 35.0001Z" fill="#5BB286"></path><path d="M41.1 45.6001C42.6 45.6001 43.8 44.4001 43.8 42.9001V37.3001C43.8 35.8001 42.6 34.6001 41.1 34.6001V45.6001Z" fill="#5BB286"></path><path d="M42.4 34.9001C42 34.7001 41.6 34.6001 41.1 34.6001V45.6001C41.6 45.6001 42 45.5001 42.4 45.3001V34.9001Z" fill="#5BB286"></path><path d="M22.6 45.6001C21.1 45.6001 19.9 44.4001 19.9 42.9001V37.3001C19.9 35.8001 21.1 34.6001 22.6 34.6001V45.6001V45.6001Z" stroke="#414042" stroke-miterlimit="10"></path><path d="M41.1 45.6001C42.6 45.6001 43.8 44.4001 43.8 42.9001V37.3001C43.8 35.8001 42.6 34.6001 41.1 34.6001V45.6001V45.6001Z" stroke="#414042" stroke-miterlimit="10"></path><path d="M19.1 41.0001V33.7001C19.1 27.3001 24.3 22.1001 30.7 22.1001H33.2C39.6 22.1001 44.8 27.3001 44.8 33.7001V41.0001" stroke="#414042" stroke-miterlimit="10"></path><path d="M41.9 21C41.9 21 34.3 28.5 27.7 25.2C27.7 25.2 26.1 31.6 35.2 31C35.1 31 44.4 30.7 41.9 21Z" fill="#F5AB35"></path><path d="M27.6 27.4C28 29.2 29.5 31.4 35.1 31C35.1 31 44.4 30.7 41.9 21C41.9 21 39.2 23.7 35.6 25.2" stroke="#414042" stroke-miterlimit="10" stroke-linecap="round"></path><path d="M37.7 45.4999C36.3 46.8999 34.5 47.6999 32.4 47.6999C30.3 47.6999 28.5 46.8999 27.1 45.4999C26.5 44.8999 26 44.1999 25.6 43.3999" stroke="#414042" stroke-miterlimit="10"></path><path d="M30 36.6001C30 37.1001 29.8 37.6001 29.5 37.9001C29.2 38.2001 28.7 38.4001 28.2 38.4001C27.7 38.4001 27.2 38.2001 26.9 37.9001C26.6 37.6001 26.4 37.1001 26.4 36.6001" stroke="#414042" stroke-miterlimit="10"></path><path d="M37.2 36.6001C37.2 37.1001 37 37.6001 36.7 37.9001C36.4 38.2001 35.9 38.4001 35.4 38.4001C34.9 38.4001 34.4 38.2001 34.1 37.9001C33.8 37.6001 33.6 37.1001 33.6 36.6001" stroke="#414042" stroke-miterlimit="10"></path><path d="M47.7742 36.0782C48.5906 35.9372 49.1761 35.3816 49.0821 34.8374C48.9881 34.2932 48.2501 33.9664 47.4337 34.1074C46.6174 34.2485 46.0319 34.804 46.1259 35.3482C46.2199 35.8924 46.9579 36.2192 47.7742 36.0782Z" stroke="#414042" stroke-miterlimit="10"></path><path d="M51.8757 36.0831C52.692 35.942 53.2776 35.3865 53.1835 34.8423C53.0895 34.2981 52.3515 33.9712 51.5352 34.1123C50.7188 34.2533 50.1333 34.8089 50.2273 35.3531C50.3214 35.8973 51.0594 36.2241 51.8757 36.0831Z" stroke="#414042" stroke-miterlimit="10"></path><path d="M49 29.7002V34.9002" stroke="#414042" stroke-miterlimit="10"></path><path d="M53.2 29.7002V34.9002" stroke="#414042" stroke-miterlimit="10"></path><path d="M49 29.5H53.1V30.5H49V29.5Z" stroke="#414042" stroke-miterlimit="10"></path><path d="M15.2767 26.7852C16.093 26.6442 16.6786 26.0887 16.5845 25.5444C16.4905 25.0002 15.7525 24.6734 14.9362 24.8144C14.1198 24.9555 13.5343 25.511 13.6283 26.0552C13.7224 26.5994 14.4604 26.9263 15.2767 26.7852Z" stroke="#414042" stroke-miterlimit="10"></path><path d="M16.6 20.3003V25.6003" stroke="#414042" stroke-miterlimit="10"></path></svg>
