<svg xmlns="http://www.w3.org/2000/svg" width="64" height="64" viewBox="0 0 64 64" fill="none"><rect width="64" height="64" rx="8" fill="#E2F8ED"></rect><path d="M46.4 52.0001V50.0001C46.4 42.1001 39.9 35.6001 32 35.6001C24.1 35.6001 17.6 42.1001 17.6 50.0001V52.0001H46.4Z" fill="#5BB286"></path><path d="M25.1 46.7998V51.9998" stroke="#414042" stroke-miterlimit="10"></path><path d="M39.7 46.7998V51.9998" stroke="#414042" stroke-miterlimit="10"></path><path d="M21.9 30.5998H21.4C20.7 30.5998 20.2 30.0998 20.2 29.3998V27.4998C20.2 26.7998 20.7 26.2998 21.4 26.2998H21.9V30.5998Z" fill="white"></path><path d="M41.3 30.5998H41.8C42.5 30.5998 43 30.0998 43 29.3998V27.4998C43 26.7998 42.5 26.2998 41.8 26.2998H41.3V30.5998Z" fill="white"></path><path d="M21.9 30.5998H21.4C20.7 30.5998 20.2 30.0998 20.2 29.3998V27.4998C20.2 26.7998 20.7 26.2998 21.4 26.2998H21.9V30.5998V30.5998Z" stroke="#414042" stroke-miterlimit="10" stroke-linecap="round"></path><path d="M41.3 30.5998H41.8C42.5 30.5998 43 30.0998 43 29.3998V27.4998C43 26.7998 42.5 26.2998 41.8 26.2998H41.3V30.5998V30.5998Z" stroke="#414042" stroke-miterlimit="10" stroke-linecap="round"></path><path d="M21.9 22.5999V30.7999C21.9 36.0999 26.2 40.4999 31.6 40.4999C36.9 40.4999 41.3 36.1999 41.3 30.7999V22.9999C40.2 16.1999 34 14.1999 31 14.2999C28.2 14.3999 22.9 17.2999 21.9 22.5999Z" fill="white"></path><path d="M41.3 25.5001C41.3 25.5001 36.4 19.7001 28.3 18.8001L22 25.7001C22 25.7001 20.4 15.7001 31.3 14.3001C31.2 14.3001 41.4 14.0001 41.3 25.5001Z" fill="#F5AB35"></path><path d="M21.9 25.6998C21.9 25.6998 25.9 23.3998 28.2 18.7998C28.2 18.7998 38 20.4998 41.2 25.4998" stroke="#414042" stroke-miterlimit="10"></path><path d="M41.3 23.9998C41.3 18.6998 37 14.2998 31.6 14.2998C26.3 14.2998 21.9 18.5998 21.9 23.9998V30.6998C21.9 35.9998 26.2 40.3998 31.6 40.3998C36.9 40.3998 41.3 36.0998 41.3 30.6998V23.9998Z" stroke="#414042" stroke-miterlimit="10"></path><path d="M40.8 12C40.8 12 34 18.8 27.9 15.8C27.9 15.8 26.4 21.6 34.7 21C34.6 21.1 43.1 20.8 40.8 12Z" fill="#F5AB35"></path><path d="M27.9 17.8001C28.2 19.4001 29.7 21.4001 34.7 21.1001C34.7 21.1001 43.2 20.9001 40.8 12.1001C40.8 12.1001 38.3 14.5001 35.1 15.9001" stroke="#414042" stroke-miterlimit="10" stroke-linecap="round"></path></svg>
