<svg xmlns="http://www.w3.org/2000/svg" width="64" height="64" viewBox="0 0 64 64" fill="none"><rect width="64" height="64" rx="8" fill="#E2F8ED"></rect><path d="M16.3 24.4002C16.3 16.8002 22.4 10.7002 30 10.7002C37.6 10.7002 43.7 16.8002 43.7 24.4002L47.7 34.4002L43.6 34.5002L43.7 38.6002C43.7 45.3002 43.7 44.8002 34.2 44.8002V53.3002H22.4V39.7002C21.7 35.2002 16.3 32.0002 16.3 24.4002Z" fill="#F7BC5D"></path><path d="M29.4 33.4C35.0333 33.4 39.6 28.8333 39.6 23.2C39.6 17.5667 35.0333 13 29.4 13C23.7667 13 19.2 17.5667 19.2 23.2C19.2 28.8333 23.7667 33.4 29.4 33.4Z" stroke="#414042" stroke-miterlimit="10" stroke-dasharray="1 1"></path><path d="M29.4 27.0004C31.4987 27.0004 33.2 25.2991 33.2 23.2004C33.2 21.1017 31.4987 19.4004 29.4 19.4004C27.3013 19.4004 25.6 21.1017 25.6 23.2004C25.6 25.2991 27.3013 27.0004 29.4 27.0004Z" fill="#D1D3D4"></path><path d="M38.9 38.7002H41.7" stroke="#414042" stroke-miterlimit="10"></path><path d="M29.4 24.7002C30.2284 24.7002 30.9 24.0286 30.9 23.2002C30.9 22.3718 30.2284 21.7002 29.4 21.7002C28.5716 21.7002 27.9 22.3718 27.9 23.2002C27.9 24.0286 28.5716 24.7002 29.4 24.7002Z" fill="white"></path><path d="M29.4 31.5V35.1" stroke="#414042" stroke-miterlimit="10"></path><path d="M29.4 14.5C24.6 14.5 20.7 18.4 20.7 23.2C20.7 28 24.6 31.9 29.4 31.9C34.2 31.9 38.1 28 38.1 23.2C38.1 18.4 34.2 14.5 29.4 14.5ZM29.4 31C25.1 31 21.6 27.5 21.6 23.2C21.6 18.9 25.1 15.4 29.4 15.4C33.7 15.4 37.2 18.9 37.2 23.2C37.2 27.5 33.7 31 29.4 31Z" fill="#A7A9AC"></path><path d="M29.4 17.2998C32.7 17.2998 35.4 19.9998 35.4 23.2998" stroke="#414042" stroke-miterlimit="10"></path><path d="M27.7 34.1001V47.8001C27.7 48.7001 28.5 49.5001 29.4 49.5001V34.1001H27.7Z" fill="#5BB286"></path><path d="M29.4 34.1001V49.5001C30.3 49.5001 31.1 48.7001 31.1 47.8001V34.1001H29.4Z" fill="#5BB286"></path><path d="M27.6 36.6001H31.2" stroke="#414042" stroke-miterlimit="10"></path><path d="M27.6 38.1001H31.2" stroke="#414042" stroke-miterlimit="10"></path></svg>
