<svg xmlns="http://www.w3.org/2000/svg" width="64" height="64" viewBox="0 0 64 64" fill="none"><rect width="64" height="64" rx="8" fill="#E2F8ED"></rect><path d="M18.2 42.5H20.7" stroke="#414042" stroke-miterlimit="10"></path><path d="M19.5 43.8002V41.2002" stroke="#414042" stroke-miterlimit="10"></path><path d="M41.9 21.3999H44.4" stroke="#414042" stroke-miterlimit="10"></path><path d="M43.2 22.7001V20.1001" stroke="#414042" stroke-miterlimit="10"></path><path d="M39.6 12.6001H43.4" stroke="#414042" stroke-miterlimit="10"></path><path d="M41.5 14.4002V10.7002" stroke="#414042" stroke-miterlimit="10"></path><path d="M48.8 20.1001H52.6" stroke="#414042" stroke-miterlimit="10"></path><path d="M50.7 22.0003V18.3003" stroke="#414042" stroke-miterlimit="10"></path><path d="M11.4 45.7002H15" stroke="#414042" stroke-miterlimit="10"></path><path d="M13.2 47.5V44" stroke="#414042" stroke-miterlimit="10"></path><path d="M18.2 50.2998H22.7" stroke="#414042" stroke-miterlimit="10"></path><path d="M20.5 52.6V48" stroke="#414042" stroke-miterlimit="10"></path><path d="M42.1 27.2004C42.1 22.3004 38.2 18.4004 33.3 18.4004C30.8 18.4004 28.6 19.4004 27 21.0004C25.4 19.4004 23.2 18.4004 20.7 18.4004C15.8 18.4004 11.9 22.3004 11.9 27.2004C11.9 29.6004 12.8 31.7004 14.4 33.3004L27 45.8004L39.9 33.0004C40 32.8004 40.4 32.4004 40.4 32.4004C41.4 30.9004 42.1 29.1004 42.1 27.2004Z" fill="#F5AB35"></path><path d="M33.3 18.4004C30.8 18.4004 28.6 19.4004 27 21.0004C25.4 19.4004 23.2 18.4004 20.7 18.4004C15.8 18.4004 11.9 22.3004 11.9 27.2004C11.9 29.6004 12.8 31.7004 14.4 33.3004" stroke="#414042" stroke-miterlimit="10"></path><path d="M39.8 43.4004L43.2 46.7004" stroke="#414042" stroke-miterlimit="10"></path><path d="M24.1 27.7002C19.6 32.2002 19.6 39.4002 24.1 43.8002C28.6 48.3002 35.8 48.3002 40.2 43.8002C44.7 39.3002 44.7 32.1002 40.2 27.7002C35.8 23.2002 28.5 23.2002 24.1 27.7002ZM39.3 42.9002C35.3 46.9002 28.9 46.9002 25 42.9002C21 38.9002 21 32.5002 25 28.6002C29 24.6002 35.4 24.6002 39.3 28.6002C43.3 32.5002 43.3 38.9002 39.3 42.9002Z" fill="#939598"></path><path d="M40.6 47.3002L46.5 53.3002L48.1 51.7002L42.2 45.7002L40.6 47.3002Z" fill="#5BB286"></path><path d="M42.2 45.7001L48.1 51.7001L49.7 50.1001L43.8 44.1001L42.2 45.7001Z" fill="#5BB286"></path><path d="M42.8 49.7004L46.1 46.4004" stroke="#414042" stroke-miterlimit="10"></path><path d="M44.2 51.1003L47.5 47.8003" stroke="#414042" stroke-miterlimit="10"></path><path d="M32.2 27.2002C37.1 27.2002 41 31.2002 41 36.0002" stroke="#414042" stroke-miterlimit="10"></path></svg>
