<svg xmlns="http://www.w3.org/2000/svg" width="64" height="64" viewBox="0 0 64 64" fill="none"><rect width="64" height="64" rx="8" fill="#E2F8ED"></rect><path d="M41.3 49.4001H21.9C21.3 49.4001 20.7 48.9001 20.7 48.2001V19.1001H42.3V48.2001C42.4 48.9001 41.9 49.4001 41.3 49.4001Z" fill="#F1F2F2"></path><path d="M37.1 49.3999H22.4C21.8 49.3999 21.3 48.8999 21.3 48.2999V23.3999" stroke="#414042" stroke-miterlimit="10"></path><path d="M41.9 23.3999V33.7999" stroke="#414042" stroke-miterlimit="10"></path><path d="M44.2 19.4C44.2 20.1 43.6 20.7 42.9 20.7H20.5C19.8 20.7 19.2 20.1 19.2 19.4V14.8C19.2 14.1 19.8 13.5 20.5 13.5H42.9C43.6 13.5 44.2 14.1 44.2 14.8V19.4Z" fill="#F5AB35"></path><path d="M44.2 19.4C44.2 20.1 43.6 20.7 42.9 20.7H20.5C19.8 20.7 19.2 20.1 19.2 19.4V14.8C19.2 14.1 19.8 13.5 20.5 13.5H42.9C43.6 13.5 44.2 14.1 44.2 14.8V19.4V19.4Z" stroke="#414042" stroke-miterlimit="10"></path><path d="M21.5 15.1001V19.4001" stroke="#414042" stroke-miterlimit="10"></path><path d="M23.3 15.1001V19.4001" stroke="#414042" stroke-miterlimit="10"></path><path d="M25.2 15.1001V19.4001" stroke="#414042" stroke-miterlimit="10"></path><path d="M27 15.1001V19.4001" stroke="#414042" stroke-miterlimit="10"></path><path d="M28.8 15.1001V19.4001" stroke="#414042" stroke-miterlimit="10"></path><path d="M30.7 15.1001V19.4001" stroke="#414042" stroke-miterlimit="10"></path><path d="M32.5 15.1001V19.4001" stroke="#414042" stroke-miterlimit="10"></path><path d="M34.3 15.1001V19.4001" stroke="#414042" stroke-miterlimit="10"></path><path d="M36.2 15.1001V19.4001" stroke="#414042" stroke-miterlimit="10"></path><path d="M38 15.1001V19.4001" stroke="#414042" stroke-miterlimit="10"></path><path d="M39.8 15.1001V19.4001" stroke="#414042" stroke-miterlimit="10"></path><path d="M41.7 15.1001V19.4001" stroke="#414042" stroke-miterlimit="10"></path><path d="M23.3 28.8999H39.8V41.8999H23.3V28.8999Z" fill="#5BB286"></path><path d="M33.8 31.5002H32.5V30.2002H30.6V31.5002H29.3V33.4002H30.6V34.7002H32.5V33.4002H33.8V31.5002Z" fill="white"></path><path d="M25.2 35.7998H38V36.4998H25.2V35.7998Z" fill="#414042"></path><path d="M25.2 37.3999H38V38.0999H25.2V37.3999Z" fill="#414042"></path><path d="M25.2 38.8999H32.5V39.5999H25.2V38.8999Z" fill="#414042"></path><path d="M44.7 38.7998C44.7 37.0998 43.3 35.7998 41.7 35.7998C40 35.7998 38.7 37.1998 38.7 38.7998V42.8998H44.7V38.7998Z" fill="#F5AB35"></path><path d="M38.4 42.8999V47.2999C38.4 49.0999 39.9 50.4999 41.6 50.4999C43.4 50.4999 44.8 48.9999 44.8 47.2999V42.8999H38.4Z" fill="#E6E7E8"></path><path d="M41.7 35.2998C39.9 35.2998 38.5 36.7998 38.5 38.4998V47.2998C38.5 49.0998 40 50.4998 41.7 50.4998C43.5 50.4998 44.9 48.9998 44.9 47.2998V38.4998C44.9 36.7998 43.4 35.2998 41.7 35.2998Z" stroke="#414042" stroke-miterlimit="10"></path></svg>
