<svg xmlns="http://www.w3.org/2000/svg" width="42" height="32" viewBox="0 0 42 32" fill="none"><path d="M41.6334 22.9629V19.8672C41.6334 16.3846 38.745 13.5791 35.1595 13.5791C31.5739 13.5791 28.6856 16.3846 28.6856 19.8672V22.9629H41.6334Z" fill="#D1D3D4"></path><path d="M38.9442 11.2573V9.51597C38.9442 7.48443 37.251 5.83984 35.1595 5.83984C33.0679 5.83984 31.3747 7.48443 31.3747 9.51597V11.2573H38.9442V11.2573Z" fill="#BCBEC0"></path><path d="M31.5739 12.3212H31.3747C31.1755 12.3212 30.9763 12.1277 30.9763 11.9343V11.2571C30.9763 11.0636 31.1755 10.8701 31.3747 10.8701H31.5739V12.3212V12.3212Z" fill="#E6E7E8"></path><path d="M38.6454 12.3212H38.8446C39.0438 12.3212 39.243 12.1277 39.243 11.9343V11.2571C39.243 11.0636 39.0438 10.8701 38.8446 10.8701H38.6454V12.3212V12.3212Z" fill="#E6E7E8"></path><path d="M31.5738 10.1936V12.3219C31.5738 14.1599 33.1673 15.7078 35.0597 15.7078C36.9521 15.7078 38.5456 14.1599 38.5456 12.3219V10.4838C35.9561 10.0001 34.0637 8.64575 33.4661 8.25879C33.5657 8.35553 32.5697 9.90337 31.5738 10.1936Z" fill="#E6E7E8"></path><path d="M13.2478 22.9629V19.8672C13.2478 16.3846 10.3594 13.5791 6.77388 13.5791C3.18834 13.5791 0.299988 16.3846 0.299988 19.8672V22.9629H13.2478Z" fill="#D1D3D4"></path><path d="M10.5587 11.2573V9.51597C10.5587 7.48443 8.86553 5.83984 6.77397 5.83984C4.6824 5.83984 2.98923 7.48443 2.98923 9.51597V11.2573H10.5587Z" fill="#BCBEC0"></path><path d="M3.18832 12.3212H2.98912C2.78992 12.3212 2.59073 12.1277 2.59073 11.9343V11.2571C2.59073 11.0636 2.78992 10.8701 2.98912 10.8701H3.18832V12.3212V12.3212Z" fill="#E6E7E8"></path><path d="M10.2598 12.3212H10.459C10.6582 12.3212 10.8574 12.1277 10.8574 11.9343V11.2571C10.8574 11.0636 10.6582 10.8701 10.459 10.8701H10.2598V12.3212V12.3212Z" fill="#E6E7E8"></path><path d="M3.18823 10.1936V12.3219C3.18823 14.1599 4.78181 15.7078 6.67418 15.7078C8.56655 15.7078 10.1601 14.1599 10.1601 12.3219V10.4838C7.57056 10.0001 5.67819 8.64575 5.0806 8.25879C5.1802 8.35553 4.18422 9.90337 3.18823 10.1936V10.1936Z" fill="#E6E7E8"></path><path d="M31.0759 31.7661V26.8324C31.0759 21.4149 26.4944 16.9648 20.9169 16.9648C15.3393 16.9648 10.7578 21.4149 10.7578 26.8324V31.7661H31.0759V31.7661Z" fill="#5BB286"></path><path d="M10.7578 31.7661V26.8324C10.7578 21.4149 15.3393 16.9648 20.9169 16.9648C26.4944 16.9648 31.0759 21.4149 31.0759 26.8324V31.7661" stroke="#414042" stroke-miterlimit="10"></path><path d="M14.2438 12.0314C14.2438 12.5151 13.8454 12.902 13.3474 12.902C12.8494 12.902 12.451 12.5151 12.451 12.0314V11.1607C12.451 10.677 12.8494 10.29 13.3474 10.29C13.8454 10.29 14.2438 10.677 14.2438 11.1607V12.0314Z" fill="white"></path><path d="M14.2438 12.0314C14.2438 12.5151 13.8454 12.902 13.3474 12.902C12.8494 12.902 12.451 12.5151 12.451 12.0314V11.1607C12.451 10.677 12.8494 10.29 13.3474 10.29C13.8454 10.29 14.2438 10.677 14.2438 11.1607V12.0314Z" stroke="#414042" stroke-miterlimit="10" stroke-linecap="round"></path><path d="M29.0838 12.0314C29.0838 12.5151 28.6854 12.902 28.1874 12.902C27.6894 12.902 27.291 12.5151 27.291 12.0314V11.1607C27.291 10.677 27.6894 10.29 28.1874 10.29C28.6854 10.29 29.0838 10.677 29.0838 11.1607V12.0314Z" fill="white"></path><path d="M29.0838 12.0314C29.0838 12.5151 28.6854 12.902 28.1874 12.902C27.6894 12.902 27.291 12.5151 27.291 12.0314V11.1607C27.291 10.677 27.6894 10.29 28.1874 10.29C28.6854 10.29 29.0838 10.677 29.0838 11.1607V12.0314Z" stroke="#414042" stroke-miterlimit="10" stroke-linecap="round"></path><path d="M27.6895 5.74316V12.8052C27.6895 16.5781 24.602 19.577 20.7176 19.577C16.8333 19.577 13.7458 16.5781 13.7458 12.8052V5.74316H27.6895V5.74316Z" fill="white"></path><path d="M27.6895 5.74316V12.8052C27.6895 16.5781 24.602 19.577 20.7176 19.577C16.8333 19.577 13.7458 16.5781 13.7458 12.8052V5.74316H27.6895V5.74316Z" stroke="#414042" stroke-miterlimit="10" stroke-linecap="round"></path><path d="M30.1796 1.19629V4.0985C30.1796 5.64634 28.8848 6.80723 27.3908 6.80723H16.0366C15.2398 6.80723 14.6422 7.38767 14.6422 8.16159V9.99965C14.6422 10.1931 14.5426 10.2899 14.3434 10.2899H12.949C12.7498 10.2899 12.6502 10.1931 12.6502 9.99965V4.77568C13.0486 3.51806 14.6422 4.00176 14.6422 4.00176C14.6422 2.45391 15.937 1.29303 17.431 1.29303H30.1796V1.19629Z" fill="#F5AB35"></path><path d="M26.9924 5.6464C28.6856 5.6464 30.08 4.29204 30.08 2.64745V1.09961H17.431C15.8374 1.09961 14.6422 2.35723 14.6422 3.80834C14.6422 3.80834 13.1482 3.32464 12.6502 4.58226V9.90298H13.2478C13.447 9.90298 13.5466 9.80624 13.5466 9.61275V7.00077C13.5466 6.13011 14.2438 5.54966 15.0406 5.54966H26.9924V5.6464Z" fill="#F7BC5D"></path><path d="M30.1796 1.19629V4.0985C30.1796 5.64634 28.8848 6.80723 27.3908 6.80723H16.0366C15.2398 6.80723 14.6422 7.38767 14.6422 8.16159V9.99965C14.6422 10.1931 14.5426 10.2899 14.3434 10.2899H12.949C12.7498 10.2899 12.6502 10.1931 12.6502 9.99965V4.77568C13.0486 3.51806 14.6422 4.00176 14.6422 4.00176C14.6422 2.45391 15.937 1.29303 17.431 1.29303H30.1796V1.19629Z" stroke="#414042" stroke-miterlimit="10" stroke-linecap="round"></path><path d="M16.0365 26.1553V31.7662" stroke="#414042" stroke-miterlimit="10"></path><path d="M26.3949 26.1553V31.7662" stroke="#414042" stroke-miterlimit="10"></path></svg>
