<svg xmlns="http://www.w3.org/2000/svg" width="35" height="42" viewBox="0 0 35 42" fill="none"><path d="M27.3 8.59941C27.3 5.19941 24.5 2.39941 21.1 2.39941C19.4 2.39941 17.8 3.09941 16.7 4.29941C15.6 3.19941 14 2.39941 12.3 2.39941C8.9 2.39941 6.1 5.19941 6.1 8.59941C6.1 10.2994 6.8 11.7994 7.8 12.8994L16.6 21.6994L25.7 12.6994L26.1 12.2994C26.9 11.1994 27.3 9.89941 27.3 8.59941V8.59941Z" fill="#5BB286"></path><path d="M21.8 22.4999L26.2 17.7999C27.3 16.3999 29.5 17.7999 28.3 19.1999L24.8 23.9999H26.5L30.6 19.5999C30.6 19.5999 31 16.8999 31.1 16.4999L31.2 12.9999C30.9 12.3999 31.2 11.6999 31.8 11.3999C32.4 11.0999 33.1 11.3999 33.4 11.9999V15.8999C33.5 16.1999 33.5 20.8999 33.5 20.8999L28.6 31.0999H21.1V23.7999C21.2 23.3999 21.4 22.7999 21.8 22.4999V22.4999Z" fill="white"></path><path d="M21.8 22.4997L26.2 17.7997C27.3 16.3997 29.5 17.7997 28.3 19.1997L24.8 23.9997H26.5L30.8 19.3997C30.8 19.3997 31.1 16.5997 31.2 16.2997L31.1 12.7997C31.2 12.0997 31.1 11.4997 31.7 11.1997C32.3 10.8997 33 11.1997 33.3 11.7997L33.5 15.8997C33.6 16.1997 33.6 20.8997 33.6 20.8997L28.7 31.0997H21.2V23.7997C21.2 23.3997 21.4 22.7997 21.8 22.4997V22.4997Z" stroke="#414042" stroke-miterlimit="10" stroke-linecap="round"></path><path d="M18.5 31.5996H30.2V41.7996H18.5V31.5996Z" fill="#F5AB35"></path><path d="M18.5 31.5996H21.7V41.7996H18.5V31.5996Z" fill="#F9CD86"></path><path d="M12.2 22.4999L7.8 17.7999C6.7 16.3999 4.5 17.7999 5.7 19.1999L9.2 24.0999H7.5L3.4 19.6999C3.4 19.6999 3 16.9999 2.9 16.5999L2.8 12.9999C3.1 12.3999 2.8 11.6999 2.2 11.3999C1.6 11.0999 0.9 11.3999 0.6 11.9999V15.8999C0.5 16.1999 0.5 20.8999 0.5 20.8999L5.4 31.0999H12.9V23.7999C12.8 23.3999 12.6 22.7999 12.2 22.4999Z" fill="white"></path><path d="M12.2 22.4993L7.8 17.7993C6.7 16.3993 4.5 17.7993 5.7 19.1993L9.2 24.0993H7.5L3.2 19.4993C3.2 19.4993 2.9 16.6993 2.8 16.3993L2.9 12.8993C2.8 12.1993 2.9 11.5993 2.3 11.2993C1.7 10.9993 1 11.2993 0.7 11.8993L0.6 15.9993C0.5 16.2993 0.5 20.9993 0.5 20.9993L5.4 31.1993H12.9V23.8993C12.8 23.3993 12.6 22.7993 12.2 22.4993V22.4993Z" stroke="#414042" stroke-miterlimit="10" stroke-linecap="round"></path><path d="M3.7 31.5996H15.4V41.7996H3.7V31.5996Z" fill="#F5AB35"></path><path d="M12.3 31.5996H15.5V41.7996H12.3V31.5996Z" fill="#F9CD86"></path><path d="M21.3 14.5994C24.6689 14.5994 27.4 11.8684 27.4 8.49941C27.4 5.13048 24.6689 2.39941 21.3 2.39941C17.9311 2.39941 15.2 5.13048 15.2 8.49941C15.2 11.8684 17.9311 14.5994 21.3 14.5994Z" fill="#F5AB35"></path><path d="M21.5 0.0996094V1.89961" stroke="#414042" stroke-miterlimit="10"></path><path d="M23.7 0.399414L23.2 2.19941" stroke="#414042" stroke-miterlimit="10"></path><path d="M25.7 1.2998L24.8 2.7998" stroke="#414042" stroke-miterlimit="10"></path><path d="M27.5 2.59961L26.2 3.89961" stroke="#414042" stroke-miterlimit="10"></path><path d="M28.8 4.39941L27.3 5.29941" stroke="#414042" stroke-miterlimit="10"></path><path d="M29.7 6.39941L28 6.89941" stroke="#414042" stroke-miterlimit="10"></path><path d="M30 8.59961H28.2" stroke="#414042" stroke-miterlimit="10"></path><path d="M29.7 10.7998L28 10.2998" stroke="#414042" stroke-miterlimit="10"></path><path d="M28.9 12.8L27.3 12" stroke="#414042" stroke-miterlimit="10"></path><path d="M27.6 14.5994L26.3 13.3994" stroke="#414042" stroke-miterlimit="10"></path><path d="M25.9 15.9994L24.9 14.3994" stroke="#414042" stroke-miterlimit="10"></path><path d="M23.8 16.8996L23.3 15.0996" stroke="#414042" stroke-miterlimit="10"></path><path d="M21.7 17.1994L21.6 15.3994" stroke="#414042" stroke-miterlimit="10"></path><path d="M19.5 16.9992L19.9 15.1992" stroke="#414042" stroke-miterlimit="10"></path><path d="M17.4 16.1996L18.3 14.5996" stroke="#414042" stroke-miterlimit="10"></path><path d="M15.6 14.8996L16.8 13.5996" stroke="#414042" stroke-miterlimit="10"></path><path d="M14.2 13.0992L15.7 12.1992" stroke="#414042" stroke-miterlimit="10"></path><path d="M13.3 11.0996L15 10.5996" stroke="#414042" stroke-miterlimit="10"></path><path d="M12.9 8.89941H14.7" stroke="#414042" stroke-miterlimit="10"></path><path d="M13.2 6.69922L14.9 7.19922" stroke="#414042" stroke-miterlimit="10"></path><path d="M13.9 4.69922L15.5 5.49922" stroke="#414042" stroke-miterlimit="10"></path><path d="M15.2 2.89941L16.5 4.09941" stroke="#414042" stroke-miterlimit="10"></path><path d="M16.9 1.5L17.9 3" stroke="#414042" stroke-miterlimit="10"></path><path d="M18.9 0.5L19.5 2.3" stroke="#414042" stroke-miterlimit="10"></path><path d="M23.7 7.4H22.3V6H20.2V7.4H18.8V9.5H20.2V10.9H22.3V9.5H23.7V7.4Z" fill="white"></path></svg>
