<svg xmlns="http://www.w3.org/2000/svg" width="40" height="40" viewBox="0 0 40 40" fill="none"><path d="M39.7 12.3008H31.5" stroke="#414042" stroke-miterlimit="10"></path><path d="M35.2 18.2002H31.3" stroke="#414042" stroke-miterlimit="10"></path><path d="M37.4 15.3008H31.5" stroke="#414042" stroke-miterlimit="10"></path><path d="M0.300003 12.3008H8.5" stroke="#414042" stroke-miterlimit="10"></path><path d="M4.8 18.2002H8.7" stroke="#414042" stroke-miterlimit="10"></path><path d="M2.60001 15.3008H8.50001" stroke="#414042" stroke-miterlimit="10"></path><path d="M20.5 1.90039V6.30039" stroke="#414042" stroke-miterlimit="10"></path><path d="M18.6 0.900391H22.4V2.30039H18.6V0.900391Z" fill="#E6E7E8"></path><path d="M18.6 0.900391H22.4V2.30039H18.6V0.900391Z" stroke="#414042" stroke-miterlimit="10"></path><path d="M30 4.90039L26.9 7.90039" stroke="#414042" stroke-miterlimit="10"></path><path d="M28.5 4L30.8 6.2" stroke="#414042" stroke-miterlimit="10"></path><path d="M12.7 4L10.5 6.2" stroke="#414042" stroke-miterlimit="10"></path><path d="M11.4 4.90039L14.5 7.90039" stroke="#414042" stroke-miterlimit="10"></path><path d="M20.4 26.6002C26.5856 26.6002 31.6 21.5858 31.6 15.4002C31.6 9.2146 26.5856 4.2002 20.4 4.2002C14.2144 4.2002 9.2 9.2146 9.2 15.4002C9.2 21.5858 14.2144 26.6002 20.4 26.6002Z" fill="white"></path><path d="M20.4 4.2002C26.6 4.2002 31.6 9.20019 31.6 15.4002H20.4V4.2002Z" fill="#F5AB35"></path><path d="M20.4 27.2002V32.3002" stroke="#414042" stroke-miterlimit="10"></path><path d="M20.4 3.10059C13.6 3.10059 8 8.60059 8 15.5006C8 22.3006 13.5 27.9006 20.4 27.9006C27.2 27.9006 32.8 22.4006 32.8 15.5006C32.8 8.70059 27.3 3.10059 20.4 3.10059ZM20.4 26.5006C14.3 26.5006 9.4 21.6006 9.4 15.5006C9.4 9.40059 14.3 4.50059 20.4 4.50059C26.5 4.50059 31.4 9.40059 31.4 15.5006C31.4 21.5006 26.5 26.5006 20.4 26.5006Z" fill="#A7A9AC"></path><path d="M18 30.8008H20.4V39.1008H18V30.8008Z" fill="#5EDFC5"></path><path d="M20.4 30.8008H22.8V39.1008H20.4V30.8008Z" fill="#5BB286"></path><path d="M17.9 33.501H23" stroke="#414042" stroke-miterlimit="10"></path><path d="M17.9 35.2002H23" stroke="#414042" stroke-miterlimit="10"></path><path d="M20.4 6.60059C20.6761 6.60059 20.9 6.37673 20.9 6.10059C20.9 5.82444 20.6761 5.60059 20.4 5.60059C20.1239 5.60059 19.9 5.82444 19.9 6.10059C19.9 6.37673 20.1239 6.60059 20.4 6.60059Z" fill="#414042"></path><path d="M25.1 7.90039C25.3761 7.90039 25.6 7.67653 25.6 7.40039C25.6 7.12425 25.3761 6.90039 25.1 6.90039C24.8239 6.90039 24.6 7.12425 24.6 7.40039C24.6 7.67653 24.8239 7.90039 25.1 7.90039Z" fill="#414042"></path><path d="M28.4 11.2002C28.6762 11.2002 28.9 10.9763 28.9 10.7002C28.9 10.4241 28.6762 10.2002 28.4 10.2002C28.1239 10.2002 27.9 10.4241 27.9 10.7002C27.9 10.9763 28.1239 11.2002 28.4 11.2002Z" fill="#414042"></path><path d="M29.7 15.9004C29.9762 15.9004 30.2 15.6765 30.2 15.4004C30.2 15.1242 29.9762 14.9004 29.7 14.9004C29.4239 14.9004 29.2 15.1242 29.2 15.4004C29.2 15.6765 29.4239 15.9004 29.7 15.9004Z" fill="#414042"></path><path d="M28.5 20.5C28.7761 20.5 29 20.2761 29 20C29 19.7239 28.7761 19.5 28.5 19.5C28.2239 19.5 28 19.7239 28 20C28 20.2761 28.2239 20.5 28.5 20.5Z" fill="#414042"></path><path d="M25.1 23.9004C25.3761 23.9004 25.6 23.6765 25.6 23.4004C25.6 23.1242 25.3761 22.9004 25.1 22.9004C24.8239 22.9004 24.6 23.1242 24.6 23.4004C24.6 23.6765 24.8239 23.9004 25.1 23.9004Z" fill="#414042"></path><path d="M20.5 25.2002C20.7761 25.2002 21 24.9763 21 24.7002C21 24.4241 20.7761 24.2002 20.5 24.2002C20.2239 24.2002 20 24.4241 20 24.7002C20 24.9763 20.2239 25.2002 20.5 25.2002Z" fill="#414042"></path><path d="M15.8 24C16.0761 24 16.3 23.7761 16.3 23.5C16.3 23.2239 16.0761 23 15.8 23C15.5239 23 15.3 23.2239 15.3 23.5C15.3 23.7761 15.5239 24 15.8 24Z" fill="#414042"></path><path d="M12.4 20.6006C12.6762 20.6006 12.9 20.3767 12.9 20.1006C12.9 19.8244 12.6762 19.6006 12.4 19.6006C12.1239 19.6006 11.9 19.8244 11.9 20.1006C11.9 20.3767 12.1239 20.6006 12.4 20.6006Z" fill="#414042"></path><path d="M11.2 16C11.4761 16 11.7 15.7761 11.7 15.5C11.7 15.2239 11.4761 15 11.2 15C10.9239 15 10.7 15.2239 10.7 15.5C10.7 15.7761 10.9239 16 11.2 16Z" fill="#414042"></path><path d="M12.4 11.3008C12.6762 11.3008 12.9 11.0769 12.9 10.8008C12.9 10.5246 12.6762 10.3008 12.4 10.3008C12.1239 10.3008 11.9 10.5246 11.9 10.8008C11.9 11.0769 12.1239 11.3008 12.4 11.3008Z" fill="#414042"></path><path d="M15.7 7.90039C15.9761 7.90039 16.2 7.67653 16.2 7.40039C16.2 7.12425 15.9761 6.90039 15.7 6.90039C15.4239 6.90039 15.2 7.12425 15.2 7.40039C15.2 7.67653 15.4239 7.90039 15.7 7.90039Z" fill="#414042"></path><path d="M20.4 16.5008C21.0075 16.5008 21.5 16.0083 21.5 15.4008C21.5 14.7933 21.0075 14.3008 20.4 14.3008C19.7925 14.3008 19.3 14.7933 19.3 15.4008C19.3 16.0083 19.7925 16.5008 20.4 16.5008Z" fill="white"></path><path d="M20.4 16.5008C21.0075 16.5008 21.5 16.0083 21.5 15.4008C21.5 14.7933 21.0075 14.3008 20.4 14.3008C19.7925 14.3008 19.3 14.7933 19.3 15.4008C19.3 16.0083 19.7925 16.5008 20.4 16.5008Z" stroke="#414042" stroke-miterlimit="10"></path><path d="M21.6 15.4004H27.2" stroke="#414042" stroke-miterlimit="10"></path><path d="M8.3 39.1006H31.7" stroke="#414042" stroke-miterlimit="10"></path></svg>
